<?xml version="1.0" encoding="utf-8"?>
<!-- Generator: Adobe Illustrator 17.0.0, SVG Export Plug-In . SVG Version: 6.00 Build 0)  -->
<!DOCTYPE svg PUBLIC "-//W3C//DTD SVG 1.1//EN" "http://www.w3.org/Graphics/SVG/1.1/DTD/svg11.dtd">
<svg version="1.1" id="Layer_1" xmlns="http://www.w3.org/2000/svg" xmlns:xlink="http://www.w3.org/1999/xlink" x="0px" y="0px"
	 width="26px" height="28px" viewBox="819 882 26 28" enable-background="new 819 882 26 28" xml:space="preserve">
<path d="M832.25,908.5c0-0.167-0.083-0.25-0.25-0.25c-0.614,0-1.144-0.222-1.586-0.664s-0.664-0.972-0.664-1.586
	c0-0.167-0.083-0.25-0.25-0.25s-0.25,0.083-0.25,0.25c0,0.761,0.269,1.409,0.805,1.945s1.184,0.805,1.945,0.805
	C832.167,908.75,832.25,908.667,832.25,908.5z M845,904c0,0.542-0.198,1.011-0.594,1.406S843.542,906,843,906h-7
	c0,1.105-0.391,2.047-1.172,2.828S833.105,910,832,910s-2.047-0.391-2.828-1.172S828,907.105,828,906h-7
	c-0.542,0-1.011-0.198-1.406-0.594S819,904.542,819,904c0.52-0.438,0.995-0.895,1.422-1.375s0.87-1.102,1.328-1.867
	s0.847-1.591,1.164-2.477s0.578-1.958,0.781-3.219S824,892.448,824,891c0-1.583,0.609-3.055,1.828-4.414s2.817-2.184,4.797-2.477
	c-0.083-0.198-0.125-0.402-0.125-0.609c0-0.417,0.145-0.77,0.438-1.062S831.583,882,832,882s0.77,0.145,1.062,0.438
	s0.438,0.645,0.438,1.062c0,0.208-0.042,0.411-0.125,0.609c1.98,0.292,3.578,1.117,4.797,2.477S840,889.417,840,891
	c0,1.448,0.102,2.802,0.305,4.062s0.464,2.333,0.781,3.219s0.706,1.711,1.164,2.477s0.902,1.388,1.328,1.867S844.48,903.562,845,904
	z"/>
</svg>
