<?xml version="1.0" encoding="utf-8"?><!-- Generator: Adobe Illustrator 17.0.2, SVG Export Plug-In . SVG Version: 6.00 Build 0)  --><!DOCTYPE svg PUBLIC "-//W3C//DTD SVG 1.0//EN" "http://www.w3.org/TR/2001/REC-SVG-20010904/DTD/svg10.dtd"><svg xmlns="http://www.w3.org/2000/svg" xmlns:xlink="http://www.w3.org/1999/xlink" version="1.0" id="Layer_1" x="0px" y="0px" width="26px" height="26px" viewBox="0 0 26 26" style="enable-background:new 0 0 26 26;" xml:space="preserve">
<g>
	<path d="M17,12c0,0.552,0.447,1,1,1h1c0.553,0,1-0.448,1-1s-0.447-1-1-1h-1C17.447,11,17,11.448,17,12z"/>
	<path d="M19,14h-1c-0.553,0-1,0.447-1,1s0.447,1,1,1h1c0.553,0,1-0.447,1-1S19.553,14,19,14z"/>
	<path d="M19,17h-1c-0.553,0-1,0.447-1,1s0.447,1,1,1h1c0.553,0,1-0.447,1-1S19.553,17,19,17z"/>
	<path d="M9,7h8c0.553,0,1-0.448,1-1s-0.447-1-1-1H9C8.448,5,8,5.448,8,6S8.448,7,9,7z"/>
	<path d="M22,0H4C2.897,0,2,0.897,2,2v22c0,1.103,0.897,2,2,2h18c1.103,0,2-0.897,2-2V2C24,0.897,23.103,0,22,0z M22,24H4V2h18V24z"/>
	<path d="M7,19h7c0.553,0,1-0.447,1-1s-0.447-1-1-1H7c-0.552,0-1,0.447-1,1S6.448,19,7,19z"/>
	<path d="M7,16h7c0.553,0,1-0.447,1-1s-0.447-1-1-1H7c-0.552,0-1,0.447-1,1S6.448,16,7,16z"/>
	<path d="M7,13h7c0.553,0,1-0.448,1-1s-0.447-1-1-1H7c-0.552,0-1,0.448-1,1S6.448,13,7,13z"/>
</g>
</svg>