<?xml version="1.0" encoding="utf-8"?><!-- Generator: Adobe Illustrator 17.0.2, SVG Export Plug-In . SVG Version: 6.00 Build 0)  --><!DOCTYPE svg PUBLIC "-//W3C//DTD SVG 1.0//EN" "http://www.w3.org/TR/2001/REC-SVG-20010904/DTD/svg10.dtd"><svg xmlns="http://www.w3.org/2000/svg" xmlns:xlink="http://www.w3.org/1999/xlink" version="1.0" id="Layer_1" x="0px" y="0px" width="26px" height="26px" viewBox="0 0 26 26" style="enable-background:new 0 0 26 26;" xml:space="preserve">
<g>
	<path d="M25.023,4.537c-0.409,0.549-3.016,4.487-6.162,4.487c-2.758,0-9.478,0-10.074,0c-2.547,0-4.725,1.927-4.725,4.976   c0,4.024,3,5,4,5c1,0,1.724,0,4.805,0c5.694,0,5.051-5.943,5.051-5.943H16.12c0,0,0.439,3.943-2.827,3.943c-0.918,0-4.527,0-5.23,0   c-0.702,0-2-0.288-2-2.5c0-2.232,3.107-2.5,3.107-2.5s7.209,0,10.398,0c3.013,0,4.771,3.349,5.455,4.323   c0.632,0.899,0.974,0.454,0.974,0s0-11.179,0-11.786h0C25.997,3.93,25.432,3.988,25.023,4.537z"/>
	<path d="M1.895,9V8.5c0-0.494-0.4-0.895-0.895-0.895S0.105,8.006,0.105,8.5v4c0,0.494,0.4,0.895,0.895,0.895s0.895-0.4,0.895-0.895   V12h0.923c0-1.869,1.6-3,1.6-3H1.895z"/>
</g>
</svg>