<?xml version="1.0" encoding="utf-8"?><!-- Generator: Adobe Illustrator 17.0.2, SVG Export Plug-In . SVG Version: 6.00 Build 0)  --><!DOCTYPE svg PUBLIC "-//W3C//DTD SVG 1.0//EN" "http://www.w3.org/TR/2001/REC-SVG-20010904/DTD/svg10.dtd"><svg xmlns="http://www.w3.org/2000/svg" xmlns:xlink="http://www.w3.org/1999/xlink" version="1.0" id="Layer_1" x="0px" y="0px" width="26px" height="26px" viewBox="0 0 26 26" style="enable-background:new 0 0 26 26;" xml:space="preserve">
<g>
	<polygon points="10.027,21.982 13.494,21.982 16.984,13.545 16.984,12 9,12 9,14.31 13.808,14.31  "/>
	<path d="M7,5c0.551,0,1-0.449,1-1V1c0-0.551-0.449-1-1-1S6,0.449,6,1v3C6,4.551,6.449,5,7,5z"/>
	<path d="M23,2h-2v2c0,1.104-0.896,2-2,2s-2-0.896-2-2V2H9v2c0,1.104-0.896,2-2,2C5.896,6,5,5.104,5,4V2H3C1.344,2,0,3.344,0,5v18   c0,1.656,1.344,3,3,3h20c1.656,0,3-1.344,3-3V5C26,3.344,24.656,2,23,2z M24,23c0,0.551-0.449,1-1,1H3c-0.551,0-1-0.449-1-1V9h22   V23z"/>
	<path d="M19,5c0.551,0,1-0.449,1-1V1c0-0.551-0.449-1-1-1s-1,0.449-1,1v3C18,4.551,18.449,5,19,5z"/>
</g>
</svg>