<?xml version="1.0" encoding="utf-8"?><!-- Generator: Adobe Illustrator 17.0.2, SVG Export Plug-In . SVG Version: 6.00 Build 0)  --><!DOCTYPE svg PUBLIC "-//W3C//DTD SVG 1.0//EN" "http://www.w3.org/TR/2001/REC-SVG-20010904/DTD/svg10.dtd"><svg xmlns="http://www.w3.org/2000/svg" xmlns:xlink="http://www.w3.org/1999/xlink" version="1.0" id="Layer_1" x="0px" y="0px" width="26px" height="26px" viewBox="0 0 26 26" style="enable-background:new 0 0 26 26;" xml:space="preserve">
<path d="M23.34,8.966C24.834,8.794,26,7.539,26,6c0-1.656-1.344-3-3-3H3C1.344,3,0,4.344,0,6c0,1.539,1.166,2.794,2.66,2.966  l-2.245,8.315C-0.5,19.732,1.063,22,4.033,22H13h7.174h1.793c2.97,0,4.533-2.268,3.618-4.719L23.34,8.966z M4.033,20.401  c-0.909,0-1.642-0.304-2.008-0.832c-0.317-0.457-0.356-1.07-0.111-1.728l0.026-0.07l0.02-0.072L5.226,5.6H13v14.801H4.033z   M23.975,19.569c-0.366,0.528-1.099,0.832-2.008,0.832h-2.075L17.282,5.6h3.492h0l3.266,12.099l0.02,0.072l0.026,0.07  C24.331,18.498,24.292,19.112,23.975,19.569z"/>
</svg>