<?xml version="1.0" encoding="utf-8"?><!-- Generator: Adobe Illustrator 17.1.0, SVG Export Plug-In . SVG Version: 6.00 Build 0)  --><!DOCTYPE svg PUBLIC "-//W3C//DTD SVG 1.0//EN" "http://www.w3.org/TR/2001/REC-SVG-20010904/DTD/svg10.dtd"><svg xmlns="http://www.w3.org/2000/svg" xmlns:xlink="http://www.w3.org/1999/xlink" version="1.0" id="Layer_1" x="0px" y="0px" viewBox="0 0 26 26" style="enable-background:new 0 0 26 26;" xml:space="preserve">
<path d="M25,12c0,2.406-0.709,4.727-2.051,6.711c-0.193,0.285-0.508,0.439-0.829,0.439c-0.192,0-0.388-0.056-0.56-0.172  c-0.457-0.309-0.577-0.931-0.268-1.389C22.409,15.938,23,14.005,23,12c0-5.514-4.486-10-10-10C7.486,2,3,6.486,3,12  c0,1.081,0.192,2.15,0.531,3.168l0.543-0.695c0.217-0.276,0.585-0.387,0.917-0.27c0.332,0.114,0.554,0.428,0.553,0.778l-0.012,4.3  c0,0.301-0.166,0.577-0.429,0.721c-0.123,0.066-0.258,0.1-0.393,0.1c-0.155,0-0.31-0.044-0.445-0.132l-3.71-2.393  c-0.297-0.191-0.438-0.551-0.351-0.894s0.384-0.591,0.736-0.616l0.764-0.056C1.25,14.728,1,13.37,1,12C1,5.383,6.383,0,13,0  C19.617,0,25,5.383,25,12z M15.6,18.654L15.6,18.654c-0.117-0.037-0.85-0.368-0.393-1.761h-0.006  c1.193-1.229,2.106-3.208,2.106-5.156c0-2.996-1.992-4.565-4.307-4.565c-2.316,0-4.297,1.57-4.297,4.565  c0,1.956,0.907,3.943,2.108,5.168c0.468,1.229-0.369,1.684-0.544,1.748C7.844,19.531,5,21.13,5,22.707c0,0.426,0,0.168,0,0.591  c0,2.149,4.167,2.638,8.023,2.638c3.862,0,7.977-0.488,7.977-2.638c0-0.423,0-0.165,0-0.591C21,21.082,18.143,19.496,15.6,18.654z"/>
</svg>