<?xml version="1.0" encoding="utf-8"?><!-- Generator: Adobe Illustrator 17.0.2, SVG Export Plug-In . SVG Version: 6.00 Build 0)  --><!DOCTYPE svg PUBLIC "-//W3C//DTD SVG 1.0//EN" "http://www.w3.org/TR/2001/REC-SVG-20010904/DTD/svg10.dtd"><svg xmlns="http://www.w3.org/2000/svg" xmlns:xlink="http://www.w3.org/1999/xlink" version="1.0" id="Layer_1" x="0px" y="0px" width="26px" height="26px" viewBox="0 0 26 26" style="enable-background:new 0 0 26 26;" xml:space="preserve">
<g>
	<path d="M13,0.152C5.904,0.152,0.152,5.904,0.152,13S5.904,25.848,13,25.848S25.848,20.096,25.848,13S20.096,0.152,13,0.152z    M13.895,23.003V22.5c0-0.494-0.4-0.895-0.895-0.895s-0.895,0.4-0.895,0.895v0.503c-4.827-0.429-8.679-4.281-9.108-9.108H3.5   c0.494,0,0.895-0.4,0.895-0.895S3.994,12.105,3.5,12.105H2.997c0.429-4.827,4.281-8.679,9.108-9.108V3.5   c0,0.494,0.401,0.895,0.895,0.895s0.895-0.401,0.895-0.895V2.997c4.827,0.428,8.68,4.28,9.108,9.108H22.5   c-0.494,0-0.895,0.401-0.895,0.895s0.4,0.895,0.895,0.895h0.503C22.574,18.722,18.722,22.574,13.895,23.003z"/>
	<path d="M14.892,13.026c0-0.009,0.003-0.017,0.003-0.026c0-0.705-0.389-1.313-0.96-1.639l-0.23-5.228   c-0.013-0.25-0.218-0.699-0.708-0.699c-0.492,0-0.693,0.449-0.709,0.699l-0.268,5.252c-0.546,0.332-0.915,0.928-0.915,1.615   c0,1.047,0.848,1.895,1.895,1.895c0.05,0,0.097-0.011,0.146-0.015l4.259,3.81c0.196,0.171,0.716,0.313,1.171-0.142   c0.456-0.455,0.311-0.972,0.142-1.169L14.892,13.026z"/>
</g>
</svg>