<?xml version="1.0" encoding="utf-8"?><!-- Generator: Adobe Illustrator 17.0.2, SVG Export Plug-In . SVG Version: 6.00 Build 0)  --><!DOCTYPE svg PUBLIC "-//W3C//DTD SVG 1.0//EN" "http://www.w3.org/TR/2001/REC-SVG-20010904/DTD/svg10.dtd"><svg xmlns="http://www.w3.org/2000/svg" xmlns:xlink="http://www.w3.org/1999/xlink" version="1.0" id="Layer_1" x="0px" y="0px" width="26px" height="26px" viewBox="0 0 26 26" style="enable-background:new 0 0 26 26;" xml:space="preserve">
<g>
	<path d="M4,18H2c-0.552,0-1,0.449-1,1v6c0,0.551,0.448,1,1,1h2c0.551,0,1-0.449,1-1v-6C5,18.449,4.551,18,4,18z"/>
	<path d="M9,16H7c-0.552,0-1,0.449-1,1v8c0,0.551,0.448,1,1,1h2c0.551,0,1-0.449,1-1v-8C10,16.449,9.551,16,9,16z"/>
	<path d="M14,13h-2c-0.552,0-1,0.449-1,1v11c0,0.551,0.448,1,1,1h2c0.551,0,1-0.449,1-1V14C15,13.449,14.551,13,14,13z"/>
	<path d="M19,15h-2c-0.552,0-1,0.449-1,1v9c0,0.551,0.448,1,1,1h2c0.551,0,1-0.449,1-1v-9C20,15.449,19.551,15,19,15z"/>
	<path d="M24,11h-2c-0.552,0-1,0.449-1,1v13c0,0.551,0.448,1,1,1h2c0.551,0,1-0.449,1-1V12C25,11.449,24.551,11,24,11z"/>
	<path d="M3,14.813c1.001,0,1.813-0.812,1.813-1.813c0-0.065-0.012-0.126-0.019-0.189l2.22-1.293   C7.298,11.703,7.636,11.813,8,11.813c1.001,0,1.813-0.812,1.813-1.813c0-0.128-0.014-0.253-0.039-0.374l2.49-1.972   C12.489,7.754,12.737,7.813,13,7.813c0.567,0,1.067-0.266,1.4-0.674l1.868,0.366c0.22,0.753,0.908,1.308,1.733,1.308   c1.001,0,1.813-0.812,1.813-1.813c0-0.124-0.013-0.246-0.037-0.363l2.44-2.009C22.454,4.743,22.718,4.813,23,4.813   c1.001,0,1.813-0.812,1.813-1.813c0-1.001-0.812-1.813-1.813-1.813c-1.001,0-1.813,0.812-1.813,1.813   c0,0.127,0.014,0.251,0.038,0.37l-2.435,2.005C18.551,5.259,18.285,5.187,18,5.187c-0.599,0-1.126,0.294-1.456,0.742l-1.785-0.35   C14.568,4.782,13.855,4.187,13,4.187c-1.001,0-1.813,0.812-1.813,1.813c0,0.146,0.022,0.286,0.055,0.422l-2.46,1.948   C8.544,8.256,8.281,8.187,8,8.187c-1.001,0-1.813,0.812-1.813,1.813c0,0.048,0.01,0.093,0.014,0.139L3.94,11.457   c-0.275-0.168-0.594-0.27-0.94-0.27c-1.001,0-1.813,0.812-1.813,1.813C1.187,14.001,1.999,14.813,3,14.813z"/>
</g>
</svg>