<?xml version="1.0" encoding="utf-8"?><!-- Generator: Adobe Illustrator 17.1.0, SVG Export Plug-In . SVG Version: 6.00 Build 0)  --><!DOCTYPE svg PUBLIC "-//W3C//DTD SVG 1.0//EN" "http://www.w3.org/TR/2001/REC-SVG-20010904/DTD/svg10.dtd"><svg xmlns="http://www.w3.org/2000/svg" xmlns:xlink="http://www.w3.org/1999/xlink" version="1.0" id="Layer_1" x="0px" y="0px" viewBox="0 0 25.626 25.075" style="enable-background:new 0 0 25.626 25.075;" xml:space="preserve">
<path d="M25.626,13.616c0,0.292,0,4.849-0.001,5.136c0,0.01-0.006,0.018-0.006,0.029c0,0.021,0.006,0.041,0.006,0.062  c0,2.776-3.126,5.159-7.604,6.221v-1.543c0-1.4-1.807-2.494-3.354-3.006c-0.13-0.047-0.297-0.277-0.125-0.842  c0.891-0.943,1.463-2.367,1.463-3.647c0-2.328-1.604-3.37-3.193-3.37c-1.586,0-3.186,1.042-3.186,3.37  c0,1.295,0.578,2.728,1.474,3.668c0.079,0.226,0.084,0.418,0.015,0.569c-0.083,0.185-0.254,0.254-0.254,0.254  c-1.6,0.579-3.215,1.733-3.215,3.004v1.554C3.145,24.019,0,21.628,0,18.844c0-0.021,0.006-0.041,0.006-0.062  C0.005,18.772,0,18.764,0,18.753c0-0.289,0-4.847,0-5.138c0-1.111,1.299-2.194,3.037-2.769c0.08-0.026,0.581-0.252,0.268-1.204  H3.304C2.488,8.804,1.865,7.45,1.865,6.12C1.865,4.072,3.226,3,4.808,3C6.39,3,7.744,4.072,7.744,6.12  c0,1.337-0.62,2.693-1.44,3.532c-0.319,0.839,0.253,1.15,0.372,1.194c0.431,0.157,0.842,0.347,1.217,0.56c0-0.369,0-0.684,0-0.791  c0-1.079,1.394-2.169,3.05-2.769c0.12-0.044,0.692-0.355,0.372-1.194c-0.82-0.839-1.44-2.195-1.44-3.532  c0-2.048,1.353-3.12,2.936-3.12c1.582,0,2.943,1.072,2.943,3.12c0,1.33-0.623,2.683-1.439,3.522h0.004  c-0.312,0.952,0.189,1.178,0.268,1.204c1.739,0.576,3.184,1.659,3.184,2.769c0,0.105,0,0.409,0,0.766  c0.363-0.204,0.76-0.385,1.174-0.534c0.119-0.044,0.691-0.355,0.372-1.194c-0.82-0.839-1.44-2.195-1.44-3.532  c0-2.048,1.354-3.12,2.936-3.12c1.582,0,2.943,1.072,2.943,3.12c0,1.33-0.623,2.683-1.439,3.522h0.004  c-0.312,0.952,0.189,1.178,0.268,1.204C24.327,11.423,25.626,12.506,25.626,13.616z"/>
</svg>