<?xml version="1.0" encoding="utf-8"?><!-- Generator: Adobe Illustrator 17.0.2, SVG Export Plug-In . SVG Version: 6.00 Build 0)  --><!DOCTYPE svg PUBLIC "-//W3C//DTD SVG 1.0//EN" "http://www.w3.org/TR/2001/REC-SVG-20010904/DTD/svg10.dtd"><svg xmlns="http://www.w3.org/2000/svg" xmlns:xlink="http://www.w3.org/1999/xlink" version="1.0" id="Layer_1" x="0px" y="0px" width="26px" height="25px" viewBox="0 0 26 25" style="enable-background:new 0 0 26 25;" xml:space="preserve">
<g>
	<path d="M9,5c0.551,0,1-0.449,1-1V1c0-0.551-0.449-1-1-1S8,0.449,8,1v3C8,4.551,8.449,5,9,5z"/>
	<path d="M19,5c0.551,0,1-0.449,1-1V1c0-0.551-0.449-1-1-1s-1,0.449-1,1v3C18,4.551,18.449,5,19,5z"/>
	<path d="M23,2h-2v2c0,1.104-0.896,2-2,2s-2-0.896-2-2V2h-6v2c0,1.104-0.896,2-2,2S7,5.104,7,4V2H5C3.344,2,2,3.344,2,5v6h2V8h20v14   c0,0.551-0.449,1-1,1H5c-0.551,0-1-0.449-1-1v-2H2v2c0,1.656,1.344,3,3,3h18c1.656,0,3-1.344,3-3V5C26,3.344,24.656,2,23,2z"/>
	<path d="M6,19.874c0,1.281,1,1,1,1v0l5.928-5.374L7,10.125c0,0-1-0.375-1,0.969C6,11.47,6,11.804,6,13H1c-0.552,0-1,0.449-1,1v3   c0,0.551,0.448,1,1,1h5C6,19.243,6,19.584,6,19.874z"/>
</g>
</svg>