<svg xmlns="http://www.w3.org/2000/svg" viewBox="0 0 26 26" enable-background="new 0 0 26 26">
    <path style="text-indent:0;text-align:start;line-height:normal;text-transform:none;block-progression:tb;-inkscape-font-specification:Bitstream Vera Sans" d="M 0.8125 0 A 1.0001 1.0001 0 0 0 0 1 L 0 22 A 1.0001 1.0001 0 0 0 1 23 L 9 23 L 9 21 L 2 21 L 2 2 L 24 2 L 24 21 L 17 21 L 17 23 L 25 23 A 1.0001 1.0001 0 0 0 26 22 L 26 1 A 1.0001 1.0001 0 0 0 25 0 L 1 0 A 1.0001 1.0001 0 0 0 0.90625 0 A 1.0001 1.0001 0 0 0 0.8125 0 z M 5 5 L 5 8 L 21 8 L 21 5 L 5 5 z M 5 10 L 5 12 L 21 12 L 21 10 L 5 10 z M 13 13.59375 C 12.6 13.59375 12.19375 13.9125 12.09375 14.3125 L 12 14.3125 C 11.7 14.1125 11.20625 14.10625 10.90625 14.40625 C 10.60625 14.70625 10.49375 15.1 10.59375 15.5 C 10.59375 15.5 10.6 15.59375 10.5 15.59375 C 10.1 15.69375 9.7875 16.00625 9.6875 16.40625 C 9.5875 16.80625 9.7875 17.20625 10.1875 17.40625 L 10.1875 17.59375 C 9.9875 17.89375 9.89375 18.2875 10.09375 18.6875 C 10.29375 18.9875 10.69375 19.1875 11.09375 19.1875 C 11.19375 19.1875 11.2125 19.3125 11.3125 19.3125 C 11.3125 19.7125 11.50625 19.9875 11.90625 20.1875 C 12.30625 20.2875 12.70625 20.20625 12.90625 19.90625 L 13 19.90625 L 13.09375 19.90625 C 13.29375 20.10625 13.5125 20.1875 13.8125 20.1875 C 13.9125 20.1875 13.99375 20.19375 14.09375 20.09375 C 14.49375 19.99375 14.6875 19.5875 14.6875 19.1875 C 14.7875 19.1875 14.80625 19.09375 14.90625 19.09375 C 15.30625 19.19375 15.70625 18.99375 15.90625 18.59375 C 16.10625 18.29375 16.1125 17.8 15.8125 17.5 L 15.8125 17.3125 C 16.1125 17.2125 16.3125 16.80625 16.3125 16.40625 C 16.2125 16.00625 15.9 15.69375 15.5 15.59375 C 15.5 15.59375 15.50625 15.5 15.40625 15.5 C 15.50625 15.1 15.39375 14.70625 15.09375 14.40625 C 14.79375 14.10625 14.3 14.1125 14 14.3125 L 13.90625 14.3125 C 13.80625 13.9125 13.4 13.59375 13 13.59375 z M 13 15.40625 C 13.9 15.40625 14.59375 16.1 14.59375 17 C 14.59375 17.9 13.9 18.59375 13 18.59375 C 12.1 18.59375 11.40625 17.9 11.40625 17 C 11.40625 16.1 12.1 15.40625 13 15.40625 z M 10 19.8125 L 10 26 L 13 24 L 16 26 L 16 19.8125 C 15.9 19.9125 15.69375 20 15.59375 20 C 15.39375 20.5 15 20.8 14.5 21 C 14.3 21.1 14.1125 21.09375 13.8125 21.09375 C 13.5125 21.09375 13.2 21.00625 13 20.90625 C 12.7 21.00625 12.4875 21.09375 12.1875 21.09375 C 11.9875 21.09375 11.8 21.1 11.5 21 C 11 20.8 10.60625 20.5 10.40625 20 C 10.20625 20 10.1 19.9125 10 19.8125 z" color="#000" overflow="visible" enable-background="accumulate" font-family="Bitstream Vera Sans"/>
</svg>
