<?xml version="1.0" encoding="utf-8"?><!-- Generator: Adobe Illustrator 17.1.0, SVG Export Plug-In . SVG Version: 6.00 Build 0)  --><!DOCTYPE svg PUBLIC "-//W3C//DTD SVG 1.0//EN" "http://www.w3.org/TR/2001/REC-SVG-20010904/DTD/svg10.dtd"><svg xmlns="http://www.w3.org/2000/svg" xmlns:xlink="http://www.w3.org/1999/xlink" version="1.0" id="Layer_1" x="0px" y="0px" viewBox="0 0 25.833 25.783" style="enable-background:new 0 0 25.833 25.783;" xml:space="preserve">
<path d="M12.115,19.158c-0.357,0.319-0.613,0.721-0.743,1.167l-1.239,4.221v0c-0.114,0.39-0.115,0.79-0.043,1.175  C5.078,25.644,0,24.89,0,22.112c0-0.581,0-0.227,0-0.811c0-2.163,3.9-4.354,7.224-5.557c0.24-0.087,1.388-0.712,0.746-2.396  C6.323,11.666,5.079,8.942,5.079,6.26C5.079,2.152,7.795,0,10.971,0c3.174,0,5.905,2.153,5.905,6.26c0,2.671-1.251,5.384-2.888,7.07  h0.009c-0.628,1.909,0.377,2.362,0.536,2.414c0.251,0.083,0.505,0.173,0.759,0.267L12.115,19.158z M21.658,17.039l1.44,1.441  l-5.927,5.875c-0.063,0.074-0.141,0.137-0.241,0.166l-4.228,1.241c-0.048,0.014-0.098,0.021-0.147,0.021  c-0.138,0-0.272-0.053-0.372-0.154c-0.135-0.136-0.186-0.334-0.132-0.52l1.24-4.226c0.032-0.108,0.101-0.191,0.182-0.256l5.913-5.86  l1.3,1.299l-0.006,0.006l0.971,0.973L21.658,17.039L21.658,17.039z M16.304,23.61l-0.342-0.341l-0.076-1.361l-1.398-0.114  l-0.285-0.285l-0.667,2.273l0.495,0.495L16.304,23.61z M19.924,14.178l3.712,3.712l0.85-0.796l-3.713-3.713L19.924,14.178z   M25.462,14.124L25.462,14.124l-1.779-1.778c-0.491-0.491-1.283-0.496-1.77-0.01l-0.545,0.552l3.557,3.559l0.547-0.553  C25.957,15.408,25.953,14.616,25.462,14.124z"/>
</svg>