<?xml version="1.0" encoding="utf-8"?><!-- Generator: Adobe Illustrator 17.0.2, SVG Export Plug-In . SVG Version: 6.00 Build 0)  --><!DOCTYPE svg PUBLIC "-//W3C//DTD SVG 1.0//EN" "http://www.w3.org/TR/2001/REC-SVG-20010904/DTD/svg10.dtd"><svg xmlns="http://www.w3.org/2000/svg" xmlns:xlink="http://www.w3.org/1999/xlink" version="1.0" id="Layer_1" x="0px" y="0px" width="25.88px" height="25.904px" viewBox="0 0 25.88 25.904" style="enable-background:new 0 0 25.88 25.904;" xml:space="preserve">
<g>
	<rect x="9" y="12" width="10" height="2"/>
	<path d="M2,21V4h20v8.435c0.414-0.203,0.867-0.322,1.343-0.322c0.224,0,0.443,0.028,0.657,0.075V3c0-1.657-1.344-3-3-3H3   C1.344,0,0,1.343,0,3v18c0,1.656,1.344,3,3,3h9.425l0.585-2H3C2.449,22,2,21.551,2,21z"/>
	<rect x="9" y="8" width="10" height="2"/>
	<polygon points="9,18 16.096,18 18.106,16 9,16  "/>
	<rect x="5" y="12" width="2" height="2"/>
	<rect x="5" y="8" width="2" height="2"/>
	<rect x="5" y="16" width="2" height="2"/>
	<path d="M25.564,15.934l-1.517-1.52c-0.418-0.421-1.094-0.424-1.507-0.009l-1.22,1.228l3.03,3.043l1.221-1.229   C25.986,17.032,25.983,16.354,25.564,15.934z"/>
	<path d="M15.345,21.502c-0.067,0.055-0.124,0.123-0.15,0.213l-1.057,3.615c-0.047,0.157-0.003,0.327,0.112,0.443   c0.086,0.085,0.2,0.131,0.317,0.131c0.042,0,0.085-0.006,0.126-0.019l3.602-1.062c0.084-0.024,0.149-0.076,0.204-0.138l4.939-4.915   l-3.163-3.175L15.345,21.502z M15.824,24.618L15.824,24.618l-0.422-0.425l0.599-2.047l1.532,0.316l0.303,1.562L15.824,24.618z"/>
</g>
</svg>