<?xml version="1.0" encoding="utf-8"?><!-- Generator: Adobe Illustrator 17.0.2, SVG Export Plug-In . SVG Version: 6.00 Build 0)  --><!DOCTYPE svg PUBLIC "-//W3C//DTD SVG 1.0//EN" "http://www.w3.org/TR/2001/REC-SVG-20010904/DTD/svg10.dtd"><svg xmlns="http://www.w3.org/2000/svg" xmlns:xlink="http://www.w3.org/1999/xlink" version="1.0" id="Layer_1" x="0px" y="0px" width="26px" height="26px" viewBox="0 0 26 26" style="fill: rgb(0, 0, 0);" xml:space="preserve">
<path d="M24.859,8C24.859,6.991,26,5.738,26,5c0-1.104-0.896-2-2-2c-0.738,0-3.124,1.141-4.5,1.141c-1.376,0-1.896-1.141-3-1.141  c-1.104,0-2.131,1.141-3.5,1.141S11.104,3,10,3C8.896,3,7.438,4.141,6.5,4.141S2.738,3,2,3C0.896,3,0,3.896,0,5  c0,0.738,1.141,2.057,1.141,3S0,10.921,0,13c0,2.079,1.141,3.991,1.141,5C1.141,19.009,0,20.262,0,21c0,1.104,0.896,2,2,2  c0.738,0,3.124-1.125,4.5-1.125S8.396,23,9.5,23s2.131-1.125,3.5-1.125S14.896,23,16,23c1.104,0,2.563-1.125,3.5-1.125  c0.937,0,3.762,1.125,4.5,1.125c1.104,0,2-0.896,2-2c0-0.738-1.141-2.057-1.141-3c0-0.943,1.141-3.05,1.141-5S24.859,9.009,24.859,8  z M23,19c0,0.551-0.449,1-1,1H4c-0.551,0-1-0.449-1-1V7c0-0.551,0.449-1,1-1h18c0.551,0,1,0.449,1,1V19z"/>
</svg>