<?xml version="1.0" encoding="utf-8"?><!-- Generator: Adobe Illustrator 17.0.2, SVG Export Plug-In . SVG Version: 6.00 Build 0)  --><!DOCTYPE svg PUBLIC "-//W3C//DTD SVG 1.0//EN" "http://www.w3.org/TR/2001/REC-SVG-20010904/DTD/svg10.dtd"><svg xmlns="http://www.w3.org/2000/svg" xmlns:xlink="http://www.w3.org/1999/xlink" version="1.0" id="Layer_1" x="0px" y="0px" width="19.93px" height="21.997px" viewBox="0 0 19.93 21.997" style="enable-background:new 0 0 19.93 21.997;" xml:space="preserve">
<path d="M19.871,21.204L13.223,0.993c-0.111-0.309-0.238-0.551-0.381-0.727C12.699,0.09,12.396,0,11.933,0H7.766  C7.323,0,7.025,0.084,6.872,0.248C6.717,0.414,6.585,0.652,6.476,0.961L0.092,21.137c-0.111,0.375-0.122,0.611-0.033,0.709  c0.088,0.101,0.253,0.15,0.496,0.15h3.67c0.309,0,0.552-0.066,0.728-0.199c0.176-0.131,0.32-0.375,0.431-0.727v0l1.237-4.102h6.53  l1.096,4.006c0.109,0.349,0.23,0.609,0.363,0.775c0.133,0.164,0.387,0.248,0.762,0.248h4.102c0.242,0,0.385-0.066,0.43-0.199  C19.947,21.667,19.937,21.468,19.871,21.204z M7.699,13.033l2.084-7.707h0.164l2.051,7.707H7.699z"/>
</svg>