<?xml version="1.0" encoding="utf-8"?><!-- Generator: Adobe Illustrator 17.0.2, SVG Export Plug-In . SVG Version: 6.00 Build 0)  --><!DOCTYPE svg PUBLIC "-//W3C//DTD SVG 1.0//EN" "http://www.w3.org/TR/2001/REC-SVG-20010904/DTD/svg10.dtd"><svg xmlns="http://www.w3.org/2000/svg" xmlns:xlink="http://www.w3.org/1999/xlink" version="1.0" id="Layer_1" x="0px" y="0px" width="16px" height="26px" viewBox="0 0 16 26" style="fill: rgb(0, 0, 0);" xml:space="preserve">
<path d="M15.2,0H0.8C0.359,0,0,0.363,0,0.812v24.375C0,25.637,0.359,26,0.8,26h14.4c0.44,0,0.8-0.363,0.8-0.812V0.812  C16,0.363,15.641,0,15.2,0z M5.75,24H3.748C2.784,24,2,23.254,2,22.332v-0.475h3.75V24z M5.75,21.143H2v-0.475v0  C2,19.746,2.784,19,3.748,19H5.75V21.143z M10.25,24H6.5v-2.143h3.75V24z M10.25,21.143H6.5V19h3.75V21.143z M6.938,17.5  c0-0.594,0.476-1.075,1.062-1.075c0.586,0,1.062,0.481,1.062,1.075S8.586,18.575,8,18.575S6.938,18.094,6.938,17.5z M14,22.332  L14,22.332C14,23.254,13.217,24,12.252,24H11v-2.143h3V22.332z M14,21.143L14,21.143l-3,0V19h1.252C13.217,19,14,19.746,14,20.668  V21.143z M14,15.223C14,15.652,13.615,16,13.143,16H2.857C2.385,16,2,15.652,2,15.223V2.778C2,2.347,2.385,2,2.857,2h10.285  C13.615,2,14,2.347,14,2.778V15.223z"/>
</svg>